<svg xmlns="http://www.w3.org/2000/svg" xmlns:xlink="http://www.w3.org/1999/xlink" width="300" zoomAndPan="magnify" viewBox="0 0 375 374.999991" height="300" preserveAspectRatio="xMidYMid meet" version="1.0"><defs><g/><clipPath id="c7738f85b9"><path d="M 48.785156 178.171875 L 326.210938 178.171875 L 326.210938 220.921875 L 48.785156 220.921875 Z M 48.785156 178.171875 " clip-rule="nonzero"/></clipPath></defs><g clip-path="url(#c7738f85b9)"><path stroke-linecap="butt" transform="matrix(0.75, 0, 0, 0.75, 48.786205, 178.173269)" fill="none" stroke-linejoin="miter" d="M -0.00139873 -0.0018588 L 369.899667 -0.0018588 L 369.899667 57.435645 L -0.00139873 57.435645 Z M -0.00139873 -0.0018588 " stroke="#1c2120" stroke-width="2" stroke-opacity="1" stroke-miterlimit="4"/></g><g fill="#1c2120" fill-opacity="1"><g transform="translate(59.254863, 206.478249)"><g><path d="M 8.203125 0 L 8.203125 -7.75 L 7.203125 -7.75 L 4.578125 -1.328125 L 1.953125 -7.75 L 0.96875 -7.75 L 0.96875 0 L 1.625 0 L 1.625 -6.875 L 4.453125 0 L 4.71875 0 L 7.53125 -6.875 L 7.53125 0 Z M 8.203125 0 "/></g></g></g><g fill="#1c2120" fill-opacity="1"><g transform="translate(71.988636, 206.478249)"><g><path d="M 7.34375 0 L 4.171875 -7.75 L 3.34375 -7.75 L 0.171875 0 L 0.921875 0 L 1.6875 -1.90625 L 5.8125 -1.90625 L 6.59375 0 Z M 5.609375 -2.5 L 1.90625 -2.5 L 3.75 -7.09375 Z M 5.609375 -2.5 "/></g></g></g><g fill="#1c2120" fill-opacity="1"><g transform="translate(83.064368, 206.478249)"><g><path d="M 6.296875 0 L 4.0625 -3.25 C 5.21875 -3.296875 6.21875 -4.078125 6.21875 -5.484375 C 6.21875 -6.890625 5.1875 -7.75 3.859375 -7.75 L 0.96875 -7.75 L 0.96875 0 L 1.625 0 L 1.625 -3.203125 L 3.328125 -3.203125 L 5.5 0 Z M 5.515625 -5.484375 C 5.515625 -4.5 4.8125 -3.8125 3.796875 -3.8125 L 1.625 -3.8125 L 1.625 -7.140625 L 3.796875 -7.140625 C 4.8125 -7.140625 5.515625 -6.453125 5.515625 -5.484375 Z M 5.515625 -5.484375 "/></g></g></g><g fill="#1c2120" fill-opacity="1"><g transform="translate(93.525577, 206.478249)"><g><path d="M 5.375 0 L 5.375 -0.609375 L 1.625 -0.609375 L 1.625 -7.75 L 0.96875 -7.75 L 0.96875 0 Z M 5.375 0 "/></g></g></g><g fill="#1c2120" fill-opacity="1"><g transform="translate(102.943269, 206.478249)"><g><path d="M 5.875 0 L 5.875 -0.609375 L 1.625 -0.609375 L 1.625 -3.671875 L 5.796875 -3.671875 L 5.796875 -4.265625 L 1.625 -4.265625 L 1.625 -7.140625 L 5.875 -7.140625 L 5.875 -7.75 L 0.96875 -7.75 L 0.96875 0 Z M 5.875 0 "/></g></g></g><g fill="#1c2120" fill-opacity="1"><g transform="translate(113.056645, 206.478249)"><g><path d="M 7.15625 0 L 7.15625 -7.75 L 6.484375 -7.75 L 6.484375 -1.15625 L 1.640625 -7.75 L 0.96875 -7.75 L 0.96875 0 L 1.625 0 L 1.625 -6.6875 L 6.5 0 Z M 7.15625 0 "/></g></g></g><g fill="#1c2120" fill-opacity="1"><g transform="translate(124.735305, 206.478249)"><g/></g></g><g fill="#1c2120" fill-opacity="1"><g transform="translate(131.312291, 206.478249)"><g><path d="M 0.15625 -0.8125 C 0.671875 -0.15625 1.3125 0.140625 2.140625 0.140625 C 3.4375 0.140625 4.5 -0.625 4.5 -2.234375 L 4.5 -7.75 L 3.8125 -7.75 L 3.8125 -2.234375 C 3.8125 -1.203125 3.171875 -0.46875 2.109375 -0.46875 C 1.375 -0.46875 0.921875 -0.859375 0.5625 -1.3125 Z M 0.15625 -0.8125 "/></g></g></g><g fill="#1c2120" fill-opacity="1"><g transform="translate(140.335758, 206.478249)"><g><path d="M 7.34375 0 L 4.171875 -7.75 L 3.34375 -7.75 L 0.171875 0 L 0.921875 0 L 1.6875 -1.90625 L 5.8125 -1.90625 L 6.59375 0 Z M 5.609375 -2.5 L 1.90625 -2.5 L 3.75 -7.09375 Z M 5.609375 -2.5 "/></g></g></g><g fill="#1c2120" fill-opacity="1"><g transform="translate(151.411491, 206.478249)"><g><path d="M 1.625 0 L 1.625 -7.75 L 0.96875 -7.75 L 0.96875 0 Z M 1.625 0 "/></g></g></g><g fill="#1c2120" fill-opacity="1"><g transform="translate(157.571058, 206.478249)"><g><path d="M 8.203125 0 L 8.203125 -7.75 L 7.203125 -7.75 L 4.578125 -1.328125 L 1.953125 -7.75 L 0.96875 -7.75 L 0.96875 0 L 1.625 0 L 1.625 -6.875 L 4.453125 0 L 4.71875 0 L 7.53125 -6.875 L 7.53125 0 Z M 8.203125 0 "/></g></g></g><g fill="#1c2120" fill-opacity="1"><g transform="translate(170.304827, 206.478249)"><g><path d="M 5.875 0 L 5.875 -0.609375 L 1.625 -0.609375 L 1.625 -3.671875 L 5.796875 -3.671875 L 5.796875 -4.265625 L 1.625 -4.265625 L 1.625 -7.140625 L 5.875 -7.140625 L 5.875 -7.75 L 0.96875 -7.75 L 0.96875 0 Z M 5.875 0 "/></g></g></g><g fill="#1c2120" fill-opacity="1"><g transform="translate(180.418197, 206.478249)"><g><path d="M 0.53125 -1.09375 C 1.125 -0.375 2.09375 0.140625 3.359375 0.140625 C 5.453125 0.140625 6.125 -1.0625 6.125 -2.0625 C 6.125 -3.625 4.75 -4.015625 3.5 -4.375 C 2.4375 -4.65625 1.46875 -4.921875 1.46875 -5.84375 C 1.46875 -6.671875 2.25 -7.265625 3.28125 -7.265625 C 4.15625 -7.265625 4.953125 -6.96875 5.5 -6.296875 L 5.9375 -6.78125 C 5.34375 -7.46875 4.484375 -7.875 3.3125 -7.875 C 1.921875 -7.875 0.78125 -7.0625 0.78125 -5.796875 C 0.78125 -4.375 2.078125 -4.03125 3.296875 -3.6875 C 4.390625 -3.40625 5.421875 -3.09375 5.421875 -2.015625 C 5.421875 -1.34375 4.96875 -0.46875 3.375 -0.46875 C 2.28125 -0.46875 1.46875 -1.015625 0.96875 -1.59375 Z M 0.53125 -1.09375 "/></g></g></g><g fill="#1c2120" fill-opacity="1"><g transform="translate(190.728675, 206.478249)"><g><path d="M 0.75 -0.40625 C 0.75 -0.125 0.984375 0.109375 1.265625 0.109375 C 1.546875 0.109375 1.78125 -0.125 1.78125 -0.40625 C 1.78125 -0.671875 1.546875 -0.90625 1.265625 -0.90625 C 0.984375 -0.90625 0.75 -0.671875 0.75 -0.40625 Z M 0.75 -0.40625 "/></g></g></g><path stroke-linecap="butt" transform="matrix(0.332173, -0.672429, 0.672429, 0.332173, 206.797712, 240.389603)" fill="none" stroke-linejoin="miter" d="M 0.000539452 0.498077 L 112.587876 0.49806 " stroke="#000000" stroke-width="1" stroke-opacity="1" stroke-miterlimit="4"/><g fill="#1c2120" fill-opacity="1"><g transform="translate(235.862363, 202.8173)"><g><path d="M 2.46875 5.609375 C 3.59375 4.328125 4.359375 2.71875 5.09375 1.140625 L 5.171875 0.9375 C 5.953125 -0.734375 8.3125 -6.59375 9.140625 -8.296875 C 9.640625 -9.328125 10.15625 -10.40625 10.75 -11.40625 C 11.0625 -11.921875 11.40625 -12.46875 12 -12.734375 L 12.03125 -12.765625 L 12.0625 -12.734375 C 12.21875 -12.625 12.296875 -12.40625 12.234375 -12.140625 C 12.078125 -10.921875 11.828125 -9.734375 11.5625 -8.5625 C 11.0625 -6.234375 10.546875 -3.828125 10.71875 -1.25 C 10.75 -0.828125 10.828125 -0.390625 11.109375 -0.0625 C 11.265625 0.09375 11.4375 0.171875 11.59375 0.171875 C 12.234375 0.171875 12.796875 -1.09375 13.03125 -1.625 C 13.09375 -1.734375 13.125 -1.796875 13.140625 -1.859375 L 13.625 -2.859375 C 15.25 -6.1875 19.453125 -14.140625 21.6875 -17.125 C 22.25 -17.828125 22.8125 -18.5 23.390625 -19.109375 C 23.875 -19.609375 24.390625 -20.046875 24.984375 -20.484375 C 25.078125 -20.546875 25.15625 -20.625 25.15625 -20.703125 C 25.109375 -20.71875 25.046875 -20.71875 25 -20.71875 C 24.6875 -20.71875 24.421875 -20.5 24.203125 -20.296875 C 24.15625 -20.234375 24.09375 -20.1875 24.046875 -20.15625 C 23.015625 -19.28125 22.1875 -18.234375 21.53125 -17.3125 C 19.828125 -14.890625 15.859375 -7.703125 14.4375 -5.125 C 14.078125 -4.453125 13.71875 -3.796875 13.34375 -3.109375 C 13.234375 -2.90625 13.125 -2.6875 13.015625 -2.4375 C 12.6875 -1.71875 12.328125 -0.90625 11.640625 -0.578125 L 11.59375 -0.546875 L 11.546875 -0.609375 C 11.109375 -1.0625 11.3125 -1.921875 11.4375 -2.5625 C 11.5 -2.765625 11.53125 -2.9375 11.546875 -3.0625 C 11.609375 -3.796875 11.71875 -4.53125 11.875 -5.4375 C 12.015625 -6.140625 12.15625 -6.859375 12.296875 -7.5625 C 12.46875 -8.390625 12.640625 -9.25 12.78125 -10.09375 C 12.875 -10.765625 13 -11.546875 12.9375 -12.359375 C 12.890625 -12.796875 12.78125 -13.09375 12.546875 -13.25 C 12.390625 -13.359375 12.234375 -13.375 12.140625 -13.375 C 12.015625 -13.375 11.90625 -13.34375 11.828125 -13.3125 C 11.640625 -13.203125 11.5 -13.015625 11.359375 -12.8125 C 10.09375 -10.890625 9.09375 -8.75 8.109375 -6.671875 C 6.90625 -4.15625 4.125 2.65625 2.4375 4.875 C 2.375 4.984375 2.234375 5.09375 2.078125 5.09375 C 2.03125 5.09375 1.96875 5.078125 1.921875 5.03125 C 1.890625 5.015625 1.859375 4.984375 1.8125 4.953125 C 1.765625 4.875 1.75 4.796875 1.734375 4.703125 C 1.703125 4.34375 1.75 4 1.796875 3.6875 C 2.265625 0.984375 4.46875 -5.90625 5.078125 -8.484375 C 5.46875 -10.140625 5.875 -11.875 6.21875 -13.578125 C 6.25 -13.734375 6.28125 -13.90625 6.234375 -14.078125 C 6.1875 -14.234375 6.03125 -14.40625 5.875 -14.40625 C 5.71875 -14.40625 5.640625 -14.234375 5.59375 -14.078125 C 4.578125 -10.6875 2.109375 -3.078125 1.40625 0.203125 C 1.078125 1.625 0.796875 3.046875 0.828125 4.546875 C 0.828125 4.828125 0.84375 5.109375 0.96875 5.390625 C 1.09375 5.703125 1.328125 5.921875 1.59375 6 C 1.640625 6.03125 1.71875 6.03125 1.78125 6.03125 C 2.078125 6.03125 2.3125 5.796875 2.46875 5.609375 Z M 2.46875 5.609375 "/></g></g></g><g fill="#1c2120" fill-opacity="1"><g transform="translate(251.492073, 202.8173)"><g><path d="M 5.90625 -2.546875 C 5.828125 -2.5 5.765625 -2.421875 5.703125 -2.359375 C 5.640625 -2.3125 5.609375 -2.265625 5.5625 -2.234375 C 5.28125 -1.984375 5.015625 -1.796875 4.75 -1.609375 C 4.140625 -1.1875 3.53125 -0.921875 2.921875 -0.75 C 2.53125 -0.625 2.203125 -0.546875 1.8125 -0.546875 C 1.59375 -0.546875 1.390625 -0.578125 1.15625 -0.640625 C 0.890625 -0.703125 0.6875 -0.84375 0.578125 -1.015625 C 0.46875 -1.15625 0.4375 -1.3125 0.46875 -1.46875 L 0.5 -1.59375 C 0.609375 -2.125 0.734375 -2.703125 1.5 -2.828125 C 2.578125 -2.984375 3.3125 -3.328125 3.796875 -3.90625 C 4 -4.171875 4.15625 -4.421875 3.890625 -4.78125 C 3.71875 -5.015625 3.484375 -5.140625 3.203125 -5.140625 C 3.109375 -5.140625 3.03125 -5.140625 2.921875 -5.109375 C 1.21875 -4.65625 0.171875 -3.625 -0.140625 -2.0625 C -0.25 -1.59375 -0.140625 -1.15625 0.15625 -0.828125 C 0.46875 -0.5 0.9375 -0.3125 1.5 -0.296875 L 1.59375 -0.296875 C 3.375 -0.296875 4.640625 -1.28125 5.859375 -2.234375 L 5.96875 -2.3125 C 6.0625 -2.390625 6.21875 -2.515625 6.1875 -2.625 C 6.09375 -2.625 5.984375 -2.59375 5.90625 -2.546875 Z M 1.703125 -3.421875 C 2.21875 -4.046875 2.765625 -4.328125 3.46875 -4.53125 L 3.625 -4.59375 L 3.53125 -4.453125 C 3.109375 -3.78125 2.578125 -3.53125 1.765625 -3.34375 L 1.59375 -3.3125 Z M 1.703125 -3.421875 "/></g></g></g><g fill="#1c2120" fill-opacity="1"><g transform="translate(257.394328, 202.8173)"><g><path d="M 0.28125 -1.0625 C 0.375 -1.453125 0.53125 -1.828125 0.671875 -2.203125 C 0.765625 -2.4375 0.84375 -2.671875 0.9375 -2.90625 C 0.984375 -3.0625 1.109375 -3.140625 1.234375 -3.1875 C 1.265625 -3.203125 1.3125 -3.21875 1.34375 -3.234375 C 3.21875 -4.34375 4.8125 -5.765625 6.046875 -7.421875 C 6.671875 -8.265625 7.28125 -9.28125 7.265625 -10.640625 C 7.265625 -11 7.15625 -11.3125 6.9375 -11.515625 C 6.75 -11.703125 6.515625 -11.796875 6.234375 -11.796875 C 6.125 -11.796875 6 -11.765625 5.890625 -11.734375 C 5.484375 -11.640625 5.1875 -11.359375 4.96875 -11.09375 C 4.15625 -10.234375 3.484375 -9.25 2.84375 -8.28125 L 2.4375 -7.6875 C 0.953125 -5.484375 -0.046875 -2.984375 -0.53125 -0.203125 L -0.578125 -0.03125 C -0.65625 0.421875 -0.765625 0.921875 -0.25 1.28125 C -0.046875 1.421875 0.109375 1.46875 0.28125 1.46875 C 0.578125 1.46875 0.828125 1.265625 1.03125 1.078125 L 1.15625 0.96875 C 1.890625 0.359375 2.609375 -0.265625 2.625 -1.3125 C 2.625 -1.859375 2.828125 -1.984375 3.21875 -2.078125 C 3.796875 -2.203125 4.359375 -2.3125 4.9375 -2.453125 L 5.828125 -2.671875 C 5.921875 -2.6875 6.03125 -2.703125 6.046875 -2.75 C 6.046875 -2.78125 6.046875 -2.828125 6 -2.875 C 5.953125 -2.953125 5.90625 -2.984375 5.859375 -2.984375 C 5.796875 -2.984375 5.75 -2.953125 5.703125 -2.9375 L 5.625 -2.921875 C 5.3125 -2.859375 4.984375 -2.765625 4.640625 -2.703125 C 3.78125 -2.515625 2.609375 -2.265625 1.390625 -2.140625 C 1.234375 -2.125 1.125 -2.09375 1.09375 -2.03125 C 1.078125 -1.96875 1.078125 -1.90625 1.109375 -1.828125 C 1.15625 -1.703125 1.28125 -1.625 1.46875 -1.625 C 1.5 -1.625 1.53125 -1.625 1.609375 -1.625 C 1.671875 -1.640625 1.765625 -1.640625 1.875 -1.671875 C 1.9375 -1.71875 1.984375 -1.734375 2.078125 -1.734375 C 2.171875 -1.734375 2.265625 -1.703125 2.359375 -1.59375 C 2.5 -1.421875 2.453125 -1.28125 2.40625 -1.125 C 2.234375 -0.609375 1.9375 -0.15625 1.5625 0.203125 C 1.265625 0.484375 0.921875 0.8125 0.46875 0.9375 C 0.4375 0.953125 0.375 0.953125 0.34375 0.953125 C 0.28125 0.953125 0.203125 0.9375 0.15625 0.90625 C 0 0.78125 0 0.53125 0.015625 0.390625 C 0.046875 -0.125 0.140625 -0.609375 0.28125 -1.0625 Z M 1.453125 -4.296875 C 1.609375 -4.65625 1.78125 -5.03125 1.96875 -5.390625 C 3.15625 -7.46875 4.328125 -9.234375 5.59375 -10.75 L 5.640625 -10.828125 C 5.8125 -11.03125 6.03125 -11.28125 6.296875 -11.28125 C 6.390625 -11.28125 6.5 -11.265625 6.578125 -11.203125 C 7.03125 -10.921875 6.921875 -10.40625 6.84375 -10.03125 L 6.828125 -9.9375 C 6.609375 -8.9375 6.125 -7.984375 5.3125 -6.984375 C 4.171875 -5.59375 2.859375 -4.515625 1.3125 -3.703125 L 1.234375 -3.78125 C 1.296875 -3.953125 1.390625 -4.125 1.453125 -4.296875 Z M 1.453125 -4.296875 "/></g></g></g><g fill="#1c2120" fill-opacity="1"><g transform="translate(262.9504, 202.8173)"><g/></g></g><g fill="#1c2120" fill-opacity="1"><g transform="translate(268.142996, 202.8173)"><g><path d="M 10.53125 -11.53125 C 10.40625 -11.609375 10.296875 -11.65625 10.1875 -11.65625 C 9.953125 -11.65625 9.75 -11.515625 9.5625 -11.375 C 8.671875 -10.75 8.125 -9.8125 7.640625 -8.921875 C 6.984375 -7.6875 6.3125 -6.4375 5.65625 -5.1875 L 4.828125 -3.625 L 4.78125 -3.734375 C 4.328125 -4.671875 3.75 -5.15625 3.078125 -5.15625 C 2.84375 -5.15625 2.578125 -5.09375 2.296875 -4.96875 C 0.75 -4.234375 -0.328125 -3 -0.90625 -1.28125 C -0.953125 -1.109375 -0.984375 -0.90625 -0.984375 -0.6875 C -0.96875 -0.421875 -0.890625 -0.1875 -0.734375 -0.015625 C -0.546875 0.140625 -0.3125 0.21875 0.015625 0.21875 C 0.796875 0.21875 1.328125 -0.15625 1.875 -0.515625 L 1.953125 -0.578125 C 2.421875 -0.90625 2.890625 -1.265625 3.359375 -1.640625 C 3.375 -1.65625 3.390625 -1.671875 3.421875 -1.71875 C 3.59375 -1.875 3.796875 -2.0625 3.984375 -2.0625 L 4 -2.0625 C 4.03125 -2.046875 4.109375 -2.03125 4.140625 -1.9375 C 4.1875 -1.828125 4.140625 -1.734375 4.078125 -1.625 C 4.0625 -1.59375 4.046875 -1.578125 4.046875 -1.5625 C 3.53125 -0.015625 2.984375 2.03125 3.046875 4.34375 C 3.0625 4.65625 3.09375 5 3.25 5.328125 C 3.34375 5.484375 3.46875 5.578125 3.59375 5.578125 C 3.65625 5.578125 3.703125 5.578125 3.734375 5.5625 C 3.828125 5.515625 3.859375 5.46875 3.859375 5.421875 C 3.875 5.34375 3.828125 5.265625 3.734375 5.171875 C 3.421875 4.828125 3.421875 4.484375 3.421875 4.171875 C 3.421875 4.109375 3.421875 4.03125 3.421875 3.96875 C 3.296875 1.421875 4.140625 -0.796875 4.8125 -2.578125 C 4.96875 -2.984375 5.21875 -3.3125 5.546875 -3.625 C 7.015625 -4.9375 8.125 -6.078125 9.015625 -7.1875 C 9.84375 -8.171875 10.59375 -9.171875 10.796875 -10.546875 C 10.859375 -10.890625 10.921875 -11.265625 10.53125 -11.53125 Z M 4.0625 -2.625 C 3.734375 -2.359375 3.40625 -2.078125 3.09375 -1.796875 C 2.59375 -1.34375 2.0625 -0.890625 1.46875 -0.5 C 1.15625 -0.296875 0.703125 -0.015625 0.171875 0.046875 C -0.140625 0.046875 -0.359375 0 -0.484375 -0.15625 C -0.609375 -0.28125 -0.625 -0.484375 -0.578125 -0.765625 C -0.375 -1.5625 0.109375 -2.140625 0.640625 -2.71875 C 1.21875 -3.34375 1.859375 -3.984375 2.78125 -4.296875 C 2.953125 -4.34375 3.09375 -4.375 3.21875 -4.375 C 3.484375 -4.375 3.6875 -4.234375 3.84375 -3.984375 C 3.890625 -3.890625 3.953125 -3.8125 4.015625 -3.71875 C 4.265625 -3.390625 4.53125 -3 4.0625 -2.625 Z M 9.796875 -8.859375 C 9.484375 -8.359375 9.125 -7.859375 8.671875 -7.328125 C 8.328125 -6.90625 7.90625 -6.46875 7.375 -5.953125 C 7.15625 -5.734375 6.921875 -5.5 6.703125 -5.28125 C 6.625 -5.234375 6.5625 -5.171875 6.46875 -5.109375 C 6.296875 -4.96875 6.125 -4.828125 6.046875 -4.671875 L 5.9375 -4.75 L 6.1875 -5.25 C 6.671875 -6.25 7.171875 -7.3125 7.75 -8.28125 C 8.125 -8.90625 8.5 -9.453125 8.90625 -9.9375 L 9.046875 -10.125 C 9.28125 -10.421875 9.5 -10.71875 9.765625 -10.96875 C 9.90625 -11.109375 10.078125 -11.203125 10.21875 -11.203125 C 10.25 -11.203125 10.28125 -11.203125 10.296875 -11.1875 C 10.40625 -11.15625 10.46875 -11.09375 10.515625 -11.015625 C 10.765625 -10.5625 10.03125 -9.25 9.796875 -8.859375 Z M 9.796875 -8.859375 "/></g></g></g><g fill="#1c2120" fill-opacity="1"><g transform="translate(276.174208, 202.8173)"><g><path d="M 5.90625 -2.546875 C 5.828125 -2.5 5.765625 -2.421875 5.703125 -2.359375 C 5.640625 -2.3125 5.609375 -2.265625 5.5625 -2.234375 C 5.28125 -1.984375 5.015625 -1.796875 4.75 -1.609375 C 4.140625 -1.1875 3.53125 -0.921875 2.921875 -0.75 C 2.53125 -0.625 2.203125 -0.546875 1.8125 -0.546875 C 1.59375 -0.546875 1.390625 -0.578125 1.15625 -0.640625 C 0.890625 -0.703125 0.6875 -0.84375 0.578125 -1.015625 C 0.46875 -1.15625 0.4375 -1.3125 0.46875 -1.46875 L 0.5 -1.59375 C 0.609375 -2.125 0.734375 -2.703125 1.5 -2.828125 C 2.578125 -2.984375 3.3125 -3.328125 3.796875 -3.90625 C 4 -4.171875 4.15625 -4.421875 3.890625 -4.78125 C 3.71875 -5.015625 3.484375 -5.140625 3.203125 -5.140625 C 3.109375 -5.140625 3.03125 -5.140625 2.921875 -5.109375 C 1.21875 -4.65625 0.171875 -3.625 -0.140625 -2.0625 C -0.25 -1.59375 -0.140625 -1.15625 0.15625 -0.828125 C 0.46875 -0.5 0.9375 -0.3125 1.5 -0.296875 L 1.59375 -0.296875 C 3.375 -0.296875 4.640625 -1.28125 5.859375 -2.234375 L 5.96875 -2.3125 C 6.0625 -2.390625 6.21875 -2.515625 6.1875 -2.625 C 6.09375 -2.625 5.984375 -2.59375 5.90625 -2.546875 Z M 1.703125 -3.421875 C 2.21875 -4.046875 2.765625 -4.328125 3.46875 -4.53125 L 3.625 -4.59375 L 3.53125 -4.453125 C 3.109375 -3.78125 2.578125 -3.53125 1.765625 -3.34375 L 1.59375 -3.3125 Z M 1.703125 -3.421875 "/></g></g></g><g fill="#1c2120" fill-opacity="1"><g transform="translate(282.076463, 202.8173)"><g><path d="M 6.625 -2.953125 C 6.546875 -2.953125 6.46875 -2.9375 6.40625 -2.9375 C 6.3125 -2.921875 6.234375 -2.921875 6.140625 -2.921875 L 6.078125 -2.921875 C 5.234375 -2.984375 4.921875 -3.234375 4.703125 -4.03125 C 4.703125 -4.078125 4.6875 -4.140625 4.6875 -4.1875 C 4.65625 -4.375 4.625 -4.5 4.453125 -4.578125 C 4.390625 -4.59375 4.34375 -4.59375 4.3125 -4.59375 C 4.171875 -4.59375 4.109375 -4.484375 4.03125 -4.375 C 4.03125 -4.375 3.796875 -4.03125 3.703125 -3.90625 C 3.4375 -3.53125 3.171875 -3.140625 2.859375 -2.765625 C 2.453125 -2.3125 2.09375 -1.9375 1.734375 -1.609375 C 1.71875 -1.609375 1.015625 -0.984375 0.6875 -0.984375 C 0.609375 -0.984375 0.546875 -1.015625 0.53125 -1.0625 C 0.46875 -1.125 0.453125 -1.265625 0.5 -1.453125 L 0.625 -1.875 C 0.75 -2.3125 0.890625 -2.75 0.984375 -3.203125 C 1.171875 -3.90625 1.375 -4.625 1.546875 -5.34375 L 1.5625 -5.40625 C 1.59375 -5.515625 1.625 -5.671875 1.5625 -5.796875 C 1.53125 -5.875 1.453125 -5.921875 1.375 -5.953125 C 1.3125 -5.984375 1.265625 -5.984375 1.234375 -5.984375 C 1.078125 -5.984375 1 -5.828125 0.9375 -5.65625 C 0.640625 -4.78125 0.359375 -3.953125 0.125 -3.140625 C -0.109375 -2.40625 -0.1875 -1.8125 -0.171875 -1.234375 C -0.171875 -0.90625 -0.0625 -0.6875 0.15625 -0.546875 C 0.265625 -0.484375 0.359375 -0.453125 0.46875 -0.453125 C 0.59375 -0.453125 0.6875 -0.5 0.828125 -0.59375 L 0.96875 -0.6875 C 1.140625 -0.8125 1.3125 -0.9375 1.46875 -1.09375 C 2.171875 -1.75 2.84375 -2.40625 3.515625 -3.078125 L 4.234375 -3.796875 L 4.28125 -3.734375 C 4.765625 -3.21875 5.25 -2.890625 5.71875 -2.765625 C 5.921875 -2.71875 6.15625 -2.6875 6.390625 -2.6875 C 6.578125 -2.6875 6.75 -2.703125 6.90625 -2.734375 C 7.03125 -2.765625 7.03125 -2.796875 7.03125 -2.828125 C 7 -2.875 6.796875 -2.9375 6.625 -2.953125 Z M 6.625 -2.953125 "/></g></g></g><g fill="#1c2120" fill-opacity="1"><g transform="translate(288.653749, 202.8173)"><g><path d="M 5.90625 -2.546875 C 5.828125 -2.5 5.765625 -2.421875 5.703125 -2.359375 C 5.640625 -2.3125 5.609375 -2.265625 5.5625 -2.234375 C 5.28125 -1.984375 5.015625 -1.796875 4.75 -1.609375 C 4.140625 -1.1875 3.53125 -0.921875 2.921875 -0.75 C 2.53125 -0.625 2.203125 -0.546875 1.8125 -0.546875 C 1.59375 -0.546875 1.390625 -0.578125 1.15625 -0.640625 C 0.890625 -0.703125 0.6875 -0.84375 0.578125 -1.015625 C 0.46875 -1.15625 0.4375 -1.3125 0.46875 -1.46875 L 0.5 -1.59375 C 0.609375 -2.125 0.734375 -2.703125 1.5 -2.828125 C 2.578125 -2.984375 3.3125 -3.328125 3.796875 -3.90625 C 4 -4.171875 4.15625 -4.421875 3.890625 -4.78125 C 3.71875 -5.015625 3.484375 -5.140625 3.203125 -5.140625 C 3.109375 -5.140625 3.03125 -5.140625 2.921875 -5.109375 C 1.21875 -4.65625 0.171875 -3.625 -0.140625 -2.0625 C -0.25 -1.59375 -0.140625 -1.15625 0.15625 -0.828125 C 0.46875 -0.5 0.9375 -0.3125 1.5 -0.296875 L 1.59375 -0.296875 C 3.375 -0.296875 4.640625 -1.28125 5.859375 -2.234375 L 5.96875 -2.3125 C 6.0625 -2.390625 6.21875 -2.515625 6.1875 -2.625 C 6.09375 -2.625 5.984375 -2.59375 5.90625 -2.546875 Z M 1.703125 -3.421875 C 2.21875 -4.046875 2.765625 -4.328125 3.46875 -4.53125 L 3.625 -4.59375 L 3.53125 -4.453125 C 3.109375 -3.78125 2.578125 -3.53125 1.765625 -3.34375 L 1.59375 -3.3125 Z M 1.703125 -3.421875 "/></g></g></g><g fill="#1c2120" fill-opacity="1"><g transform="translate(294.556004, 202.8173)"><g><path d="M 7.375 -15 C 7.265625 -15.078125 7.1875 -15.109375 7.109375 -15.109375 C 6.984375 -15.109375 6.890625 -15 6.78125 -14.875 C 6.765625 -14.84375 6.734375 -14.78125 6.703125 -14.75 C 4.859375 -12.765625 3.703125 -10.28125 2.5 -7.828125 C 0.34375 -3.5 -1.8125 1.1875 -2.265625 6.375 L -2.28125 6.5625 C -2.34375 7.125 -2.390625 7.734375 -2.203125 8.359375 C -2.03125 8.96875 -1.625 9.265625 -0.984375 9.265625 L -0.953125 9.265625 C -0.828125 9.265625 -0.6875 9.234375 -0.703125 9 C -0.734375 8.9375 -0.765625 8.84375 -0.8125 8.796875 C -0.84375 8.765625 -0.90625 8.75 -0.953125 8.71875 C -1.21875 8.6875 -1.421875 8.625 -1.546875 8.484375 C -1.71875 8.296875 -1.703125 8.03125 -1.703125 7.8125 C -1.703125 7.734375 -1.703125 7.6875 -1.703125 7.640625 C -1.734375 6.21875 -1.546875 4.78125 -1.109375 3.078125 C 0.109375 -1.75 2.21875 -6.296875 4.765625 -10.421875 C 5.328125 -11.359375 5.921875 -12.25 6.546875 -13.140625 C 6.5625 -13.171875 6.578125 -13.1875 6.578125 -13.203125 C 6.84375 -13.578125 7.078125 -13.9375 7.359375 -14.265625 C 7.546875 -14.546875 7.65625 -14.75 7.375 -15 Z M 7.375 -15 "/></g></g></g><g fill="#1c2120" fill-opacity="1"><g transform="translate(297.844647, 202.8173)"><g><path d="M 6.21875 -2.796875 C 6.1875 -2.796875 6.140625 -2.796875 6.125 -2.796875 C 5.953125 -2.796875 5.8125 -2.75 5.671875 -2.6875 C 5.5625 -2.625 5.453125 -2.578125 5.3125 -2.5625 C 5.03125 -2.53125 4.75 -2.5 4.390625 -2.5 C 4.265625 -2.5 4.125 -2.515625 3.96875 -2.515625 C 3.71875 -2.53125 3.5625 -2.578125 3.484375 -2.6875 C 3.390625 -2.765625 3.375 -2.90625 3.421875 -3.09375 C 3.515625 -3.4375 3.515625 -3.8125 3.40625 -4.1875 C 3.296875 -4.640625 3.078125 -4.90625 2.75 -5.0625 C 2.59375 -5.125 2.453125 -5.15625 2.34375 -5.15625 C 2.125 -5.15625 1.9375 -5.078125 1.765625 -4.921875 C 1.546875 -4.71875 1.328125 -4.515625 1.140625 -4.3125 C 0.296875 -3.421875 -0.171875 -2.390625 -0.265625 -1.21875 C -0.28125 -0.765625 -0.28125 -0.296875 0.1875 0 C 0.34375 0.125 0.515625 0.171875 0.6875 0.171875 C 0.953125 0.171875 1.21875 0.03125 1.390625 -0.09375 C 2.109375 -0.546875 2.65625 -1.15625 2.984375 -1.890625 C 3.140625 -2.203125 3.3125 -2.34375 3.578125 -2.34375 C 3.6875 -2.34375 3.8125 -2.3125 3.953125 -2.28125 C 4.21875 -2.21875 4.5 -2.1875 4.765625 -2.1875 C 5.078125 -2.1875 5.359375 -2.234375 5.671875 -2.3125 C 5.859375 -2.375 6.390625 -2.546875 6.359375 -2.75 C 6.359375 -2.75 6.3125 -2.78125 6.21875 -2.796875 Z M 2.609375 -2.609375 C 2.609375 -2.5625 2.609375 -2.515625 2.59375 -2.453125 C 2.28125 -1.71875 1.8125 -0.78125 0.8125 -0.28125 C 0.734375 -0.21875 0.640625 -0.203125 0.546875 -0.203125 C 0.453125 -0.203125 0.359375 -0.25 0.296875 -0.3125 C 0.203125 -0.390625 0.15625 -0.546875 0.15625 -0.75 C 0.171875 -1.859375 0.625 -2.71875 1.3125 -3.65625 C 1.375 -3.734375 1.421875 -3.78125 1.484375 -3.78125 C 1.609375 -3.78125 1.71875 -3.65625 1.796875 -3.546875 C 1.859375 -3.5 1.890625 -3.46875 1.921875 -3.421875 C 2.09375 -3.296875 2.265625 -3.109375 2.421875 -2.953125 C 2.46875 -2.90625 2.546875 -2.84375 2.625 -2.734375 C 2.609375 -2.6875 2.609375 -2.65625 2.609375 -2.609375 Z M 2.765625 -3.3125 C 2.75 -3.234375 2.734375 -3.171875 2.71875 -3.078125 L 2.703125 -3 L 2.625 -3.0625 C 2.5625 -3.140625 2.5 -3.1875 2.40625 -3.25 C 2.140625 -3.46875 1.890625 -3.671875 2.015625 -4.03125 C 2.046875 -4.140625 2.21875 -4.3125 2.390625 -4.3125 C 2.453125 -4.3125 2.53125 -4.296875 2.578125 -4.234375 C 2.90625 -3.9375 2.84375 -3.625 2.765625 -3.3125 Z M 2.765625 -3.3125 "/></g></g></g><g fill="#1c2120" fill-opacity="1"><g transform="translate(303.712284, 202.8173)"><g><path d="M 8.046875 -3.203125 C 8.015625 -3.203125 7.984375 -3.203125 7.96875 -3.203125 C 7.71875 -3.15625 7.515625 -3.078125 7.3125 -3 C 7.1875 -2.953125 7.078125 -2.921875 6.984375 -2.890625 C 6.765625 -2.828125 6.578125 -2.75 6.390625 -2.6875 L 6.125 -2.59375 C 6.09375 -2.578125 6 -2.5625 5.921875 -2.546875 C 5.734375 -2.5 5.34375 -2.40625 5.328125 -2.375 L 5.21875 -2.40625 L 5.25 -2.59375 C 5.265625 -2.703125 5.265625 -2.78125 5.28125 -2.90625 C 5.296875 -3.34375 5.3125 -3.75 4.84375 -4.109375 C 4.640625 -4.28125 4.4375 -4.34375 4.21875 -4.34375 C 4 -4.34375 3.796875 -4.28125 3.59375 -4.1875 C 3.0625 -3.984375 2.625 -3.640625 2.171875 -3.171875 C 1.765625 -2.78125 1.421875 -2.359375 1.078125 -1.921875 C 0.75 -1.5 0.421875 -1.078125 0.015625 -0.6875 L -0.0625 -0.78125 L 0 -0.96875 C 0.046875 -1.09375 0.109375 -1.234375 0.171875 -1.375 L 0.890625 -3 C 1.5 -4.421875 2.140625 -5.859375 2.75 -7.265625 C 2.765625 -7.3125 2.78125 -7.359375 2.828125 -7.390625 C 2.9375 -7.625 3 -7.765625 2.734375 -7.96875 C 2.671875 -8 2.609375 -8.03125 2.5625 -8.03125 C 2.453125 -8.03125 2.390625 -7.953125 2.3125 -7.859375 C 2.28125 -7.796875 2.234375 -7.71875 2.171875 -7.671875 C 1.859375 -7.5 1.8125 -7.171875 1.78125 -6.828125 C 1.765625 -6.625 1.734375 -6.40625 1.65625 -6.234375 L 1.578125 -6.0625 C 0.75 -4.3125 -0.109375 -2.5 -0.90625 -0.671875 C -2.21875 2.234375 -6.40625 11.421875 -7.546875 14.421875 L -7.5625 14.484375 C -7.625 14.625 -7.6875 14.78125 -7.640625 14.921875 C -7.59375 15 -7.53125 15.046875 -7.4375 15.09375 C -7.34375 15.15625 -7.25 15.1875 -7.1875 15.1875 C -7 15.1875 -6.84375 15.046875 -6.828125 14.84375 C -6.78125 14.390625 -6.609375 14 -6.4375 13.640625 C -6.375 13.46875 -6.28125 13.296875 -6.234375 13.125 C -4.921875 9.40625 -0.265625 0.21875 1.90625 -2.21875 C 2.453125 -2.828125 3.0625 -3.421875 3.953125 -3.734375 C 4.046875 -3.796875 4.171875 -3.8125 4.265625 -3.8125 C 4.375 -3.8125 4.484375 -3.78125 4.546875 -3.703125 C 4.671875 -3.578125 4.703125 -3.40625 4.703125 -3.15625 C 4.65625 -2.421875 4.5 -1.875 3.84375 -1.5625 C 2.609375 -1 1.65625 -0.359375 0.953125 0.375 C 0.90625 0.4375 0.859375 0.46875 0.8125 0.515625 C 0.5 0.8125 0.15625 1.15625 0.59375 1.625 C 0.75 1.796875 0.9375 1.890625 1.125 1.890625 C 1.40625 1.890625 1.671875 1.71875 1.921875 1.578125 L 1.984375 1.546875 C 3.078125 0.90625 3.96875 -0.046875 4.71875 -1.390625 C 4.875 -1.65625 5.09375 -1.828125 5.328125 -1.9375 C 5.875 -2.140625 6.40625 -2.359375 6.953125 -2.5625 C 7.171875 -2.625 7.40625 -2.6875 7.640625 -2.734375 C 7.96875 -2.796875 8.3125 -2.875 8.59375 -3.046875 C 8.65625 -3.078125 8.65625 -3.09375 8.65625 -3.09375 C 8.625 -3.15625 8.34375 -3.203125 8.046875 -3.203125 Z M 1.53125 1.5 C 1.421875 1.5625 1.234375 1.609375 1.0625 1.609375 C 0.921875 1.609375 0.8125 1.578125 0.75 1.484375 C 0.671875 1.40625 0.671875 1.296875 0.734375 1.140625 C 0.90625 0.671875 1.390625 0.34375 1.796875 0.0625 C 1.890625 0.015625 1.953125 -0.03125 2.046875 -0.09375 C 2.28125 -0.28125 2.5625 -0.4375 2.875 -0.625 C 3.03125 -0.6875 3.1875 -0.78125 3.34375 -0.859375 C 3.375 -0.859375 3.421875 -0.890625 3.484375 -0.90625 C 3.5625 -0.9375 3.703125 -0.984375 3.734375 -1.03125 L 3.84375 -0.96875 C 3.234375 0.25 2.515625 1.03125 1.53125 1.5 Z M 1.53125 1.5 "/></g></g></g><g fill="#1c2120" fill-opacity="1"><g transform="translate(311.414638, 202.8173)"><g><path d="M 5.90625 -2.546875 C 5.828125 -2.5 5.765625 -2.421875 5.703125 -2.359375 C 5.640625 -2.3125 5.609375 -2.265625 5.5625 -2.234375 C 5.28125 -1.984375 5.015625 -1.796875 4.75 -1.609375 C 4.140625 -1.1875 3.53125 -0.921875 2.921875 -0.75 C 2.53125 -0.625 2.203125 -0.546875 1.8125 -0.546875 C 1.59375 -0.546875 1.390625 -0.578125 1.15625 -0.640625 C 0.890625 -0.703125 0.6875 -0.84375 0.578125 -1.015625 C 0.46875 -1.15625 0.4375 -1.3125 0.46875 -1.46875 L 0.5 -1.59375 C 0.609375 -2.125 0.734375 -2.703125 1.5 -2.828125 C 2.578125 -2.984375 3.3125 -3.328125 3.796875 -3.90625 C 4 -4.171875 4.15625 -4.421875 3.890625 -4.78125 C 3.71875 -5.015625 3.484375 -5.140625 3.203125 -5.140625 C 3.109375 -5.140625 3.03125 -5.140625 2.921875 -5.109375 C 1.21875 -4.65625 0.171875 -3.625 -0.140625 -2.0625 C -0.25 -1.59375 -0.140625 -1.15625 0.15625 -0.828125 C 0.46875 -0.5 0.9375 -0.3125 1.5 -0.296875 L 1.59375 -0.296875 C 3.375 -0.296875 4.640625 -1.28125 5.859375 -2.234375 L 5.96875 -2.3125 C 6.0625 -2.390625 6.21875 -2.515625 6.1875 -2.625 C 6.09375 -2.625 5.984375 -2.59375 5.90625 -2.546875 Z M 1.703125 -3.421875 C 2.21875 -4.046875 2.765625 -4.328125 3.46875 -4.53125 L 3.625 -4.59375 L 3.53125 -4.453125 C 3.109375 -3.78125 2.578125 -3.53125 1.765625 -3.34375 L 1.59375 -3.3125 Z M 1.703125 -3.421875 "/></g></g></g><g fill="#1c2120" fill-opacity="1"><g transform="translate(317.316894, 202.8173)"><g><path d="M 7.546875 -2.6875 C 7.5 -2.6875 7.4375 -2.65625 7.375 -2.625 C 7.34375 -2.609375 7.28125 -2.59375 7.25 -2.578125 C 7.15625 -2.5625 7.046875 -2.546875 6.9375 -2.546875 C 6.296875 -2.546875 5.625 -2.90625 5.140625 -3.5 C 4.703125 -4.03125 4.4375 -4.296875 4.15625 -4.296875 C 3.984375 -4.296875 3.78125 -4.1875 3.4375 -3.953125 C 2.953125 -3.578125 2.515625 -3.203125 2.046875 -2.796875 L 1.3125 -2.203125 C 1.265625 -2.140625 1.21875 -2.09375 1.140625 -2.03125 C 1 -1.890625 0.859375 -1.734375 0.640625 -1.671875 L 0.59375 -1.671875 L 0.578125 -1.71875 C 0.484375 -1.8125 0.734375 -2.359375 0.734375 -2.359375 C 0.84375 -2.578125 0.953125 -2.796875 1.0625 -3.03125 C 1.21875 -3.375 1.34375 -3.734375 1.5 -4.109375 L 1.625 -4.4375 C 1.640625 -4.46875 1.671875 -4.515625 1.703125 -4.546875 C 1.75 -4.671875 1.828125 -4.796875 1.78125 -4.921875 C 1.75 -4.984375 1.703125 -5.03125 1.609375 -5.09375 C 1.5625 -5.125 1.5 -5.140625 1.453125 -5.140625 C 1.3125 -5.140625 1.21875 -4.96875 1.125 -4.84375 L 1.109375 -4.796875 C 0.421875 -3.671875 -0.140625 -2.40625 -0.609375 -0.9375 L -0.625 -0.859375 C -0.6875 -0.671875 -0.765625 -0.46875 -0.5 -0.28125 C -0.421875 -0.203125 -0.328125 -0.171875 -0.265625 -0.171875 C -0.140625 -0.171875 -0.0625 -0.28125 0 -0.375 C 0.03125 -0.421875 0.0625 -0.453125 0.109375 -0.484375 L 0.515625 -0.921875 C 1.4375 -1.875 2.390625 -2.84375 3.484375 -3.625 C 3.796875 -3.84375 3.96875 -3.96875 4.15625 -3.96875 C 4.390625 -3.96875 4.59375 -3.75 5 -3.265625 C 5.5 -2.703125 6.25 -2.34375 6.90625 -2.34375 C 7.171875 -2.34375 7.40625 -2.390625 7.59375 -2.515625 C 7.671875 -2.546875 7.6875 -2.59375 7.671875 -2.609375 C 7.671875 -2.625 7.640625 -2.671875 7.546875 -2.6875 Z M 7.546875 -2.6875 "/></g></g></g></svg>