<svg xmlns="http://www.w3.org/2000/svg" xmlns:xlink="http://www.w3.org/1999/xlink" width="200" zoomAndPan="magnify" viewBox="0 0 150 52.499999" height="70" preserveAspectRatio="xMidYMid meet" version="1.0"><defs><g/><clipPath id="b71944bb85"><path d="M 0.707031 6 L 17 6 L 17 20 L 0.707031 20 Z M 0.707031 6 " clip-rule="nonzero"/></clipPath></defs><g clip-path="url(#b71944bb85)"><g fill="#000000" fill-opacity="1"><g transform="translate(-0.936695, 19.018889)"><g><path d="M 16.046875 -1.5 C 15.515625 -5.34375 15.09375 -9.078125 14.78125 -13 L 14.75 -13 C 12.984375 -9.515625 11.15625 -6.1875 9.109375 -2.625 C 6.859375 -6.34375 5.03125 -9.640625 3.25 -13 L 3.203125 -13 C 2.90625 -9.21875 2.5 -5.328125 1.9375 -1.5625 C 1.796875 -0.515625 1.40625 -0.234375 0.390625 -0.09375 L 0.390625 0.015625 C 1.25 -0.046875 1.734375 -0.078125 2.375 -0.078125 C 3.03125 -0.078125 3.40625 -0.046875 4.28125 0.015625 L 4.28125 -0.09375 C 3.25 -0.265625 2.890625 -0.515625 2.984375 -1.5625 C 3.15625 -3.953125 3.390625 -6.21875 3.703125 -8.671875 C 5.4375 -5.71875 7.09375 -2.75 8.609375 0.15625 L 8.640625 0.15625 C 10.15625 -2.796875 11.734375 -5.71875 13.40625 -8.71875 C 13.734375 -6.328125 13.984375 -3.953125 14.140625 -1.515625 C 14.203125 -0.5 13.6875 -0.234375 12.78125 -0.09375 L 12.78125 0.015625 C 13.671875 -0.046875 14.46875 -0.078125 15.171875 -0.078125 C 15.984375 -0.078125 16.765625 -0.046875 17.65625 0.015625 L 17.65625 -0.09375 C 16.6875 -0.25 16.171875 -0.515625 16.046875 -1.5 Z M 16.046875 -1.5 "/></g></g></g></g><g fill="#000000" fill-opacity="1"><g transform="translate(17.095751, 19.018889)"><g><path d="M 11.609375 -1.625 C 9.34375 -6.53125 8.296875 -8.796875 6.453125 -12.984375 L 6.421875 -12.984375 C 5.46875 -10.515625 3.015625 -4.65625 1.6875 -1.65625 C 1.234375 -0.59375 0.671875 -0.171875 0.109375 -0.09375 L 0.109375 0.015625 C 0.609375 -0.03125 1.25 -0.09375 1.9375 -0.09375 C 2.484375 -0.09375 3.25 -0.03125 3.875 0.015625 L 3.875 -0.09375 C 2.703125 -0.203125 2.390625 -0.609375 2.78125 -1.640625 C 3.0625 -2.421875 3.375 -3.234375 3.671875 -4.03125 C 4.375 -4.0625 5.296875 -4.078125 6.171875 -4.078125 C 7.046875 -4.078125 7.890625 -4.0625 8.609375 -4.03125 C 9.015625 -3.078125 9.375 -2.25 9.609375 -1.640625 C 10 -0.609375 9.484375 -0.203125 8.359375 -0.09375 L 8.359375 0.015625 C 9.234375 -0.078125 10.28125 -0.09375 10.96875 -0.09375 C 11.703125 -0.09375 12.671875 -0.046875 13.28125 0.015625 L 13.28125 -0.09375 C 12.4375 -0.234375 12.0625 -0.625 11.609375 -1.625 Z M 6.15625 -4.765625 C 5.484375 -4.765625 4.625 -4.796875 4 -4.84375 C 4.671875 -6.578125 5.34375 -8.3125 5.984375 -9.875 C 6.59375 -8.5625 7.484375 -6.59375 8.265625 -4.828125 C 7.59375 -4.796875 6.84375 -4.765625 6.15625 -4.765625 Z M 6.15625 -4.765625 "/></g></g></g><g fill="#000000" fill-opacity="1"><g transform="translate(30.47754, 19.018889)"><g><path d="M 7.765625 -5.96875 C 9.015625 -6.65625 9.71875 -7.9375 9.71875 -9.3125 C 9.71875 -11.296875 8.265625 -12.8125 5.515625 -12.8125 C 4.84375 -12.8125 4.046875 -12.75 3.25 -12.75 C 2.515625 -12.75 1.84375 -12.78125 0.96875 -12.859375 L 0.96875 -12.75 C 1.921875 -12.609375 2.390625 -12.3125 2.453125 -11.34375 C 2.546875 -9.9375 2.546875 -7.625 2.546875 -6.421875 C 2.546875 -4.59375 2.53125 -3.1875 2.4375 -1.59375 C 2.390625 -0.625 1.90625 -0.25 0.9375 -0.09375 L 0.9375 0.015625 C 1.859375 -0.046875 2.640625 -0.09375 3.375 -0.09375 C 4.078125 -0.09375 4.890625 -0.046875 5.796875 0.015625 L 5.796875 -0.09375 C 4.8125 -0.265625 4.34375 -0.625 4.296875 -1.59375 C 4.203125 -3 4.1875 -4.0625 4.1875 -5.484375 C 4.5625 -5.453125 5.0625 -5.421875 5.484375 -5.421875 C 5.703125 -5.421875 5.90625 -5.4375 6.09375 -5.453125 C 8.984375 -1.171875 8.1875 0 13.1875 0 L 13.1875 -0.109375 C 11.171875 -0.140625 10.109375 -2.078125 7.765625 -5.96875 Z M 5.296875 -5.96875 C 4.84375 -5.96875 4.5 -6.03125 4.1875 -6.078125 L 4.1875 -6.421875 C 4.1875 -8.21875 4.1875 -9.46875 4.296875 -12.0625 C 4.640625 -12.109375 4.953125 -12.140625 5.296875 -12.140625 C 7.25 -12.140625 8.046875 -10.59375 8.046875 -9.03125 C 8.046875 -7.8125 7.546875 -5.96875 5.296875 -5.96875 Z M 5.296875 -5.96875 "/></g></g></g><g fill="#000000" fill-opacity="1"><g transform="translate(43.271312, 19.018889)"><g><path d="M 9.125 -2.609375 L 9.015625 -2.625 C 8.640625 -1.03125 8.0625 -0.765625 6.59375 -0.765625 C 5.234375 -0.765625 4.328125 -0.875 4.265625 -2.078125 C 4.203125 -3.046875 4.1875 -4.46875 4.1875 -6.421875 C 4.1875 -8.34375 4.1875 -9.5625 4.296875 -11.25 C 4.34375 -12.21875 4.8125 -12.5625 5.796875 -12.75 L 5.796875 -12.859375 C 4.890625 -12.78125 4.078125 -12.75 3.375 -12.75 C 2.640625 -12.75 1.859375 -12.78125 0.9375 -12.859375 L 0.9375 -12.75 C 1.90625 -12.59375 2.390625 -12.21875 2.4375 -11.25 C 2.53125 -9.640625 2.546875 -8.234375 2.546875 -6.421875 C 2.546875 -4.453125 2.546875 -3.25 2.453125 -1.609375 C 2.40625 -0.578125 1.90625 -0.25 0.96875 -0.09375 L 0.96875 0.015625 C 2.03125 -0.078125 4.140625 -0.09375 5.265625 -0.09375 C 6.453125 -0.09375 7.546875 -0.078125 9.125 0.03125 C 9.03125 -0.890625 9.03125 -1.734375 9.125 -2.609375 Z M 9.125 -2.609375 "/></g></g></g><g fill="#000000" fill-opacity="1"><g transform="translate(53.695211, 19.018889)"><g><path d="M 9.125 -2.640625 L 9.015625 -2.65625 C 8.640625 -1.0625 8.0625 -0.765625 6.59375 -0.765625 C 5.21875 -0.765625 4.328125 -0.875 4.25 -2.078125 C 4.1875 -3.046875 4.171875 -4.46875 4.171875 -6.421875 L 4.171875 -6.46875 C 4.8125 -6.46875 5.46875 -6.46875 6.203125 -6.453125 C 7.453125 -6.421875 7.625 -6.078125 7.859375 -5.21875 L 7.96875 -5.234375 C 7.890625 -5.734375 7.859375 -6.28125 7.859375 -6.78125 C 7.859375 -7.28125 7.921875 -7.8125 7.96875 -8.328125 L 7.859375 -8.34375 C 7.671875 -7.5625 7.4375 -7.078125 6.203125 -7.0625 C 5.28125 -7.046875 4.703125 -7.046875 4.171875 -7.0625 C 4.171875 -8.515625 4.1875 -9.6875 4.28125 -12.046875 C 5.046875 -12.140625 5.71875 -12.15625 6.28125 -12.15625 C 7.984375 -12.15625 8.6875 -11.84375 8.953125 -10.40625 L 9.0625 -10.40625 C 8.984375 -11.25 9 -12.15625 9.0625 -12.859375 C 8.015625 -12.78125 6.546875 -12.75 5.265625 -12.75 C 3.5625 -12.75 2.046875 -12.765625 0.96875 -12.859375 L 0.96875 -12.75 C 1.90625 -12.59375 2.390625 -12.1875 2.4375 -11.21875 C 2.53125 -9.609375 2.53125 -8.171875 2.53125 -6.421875 C 2.53125 -4.453125 2.53125 -3.25 2.4375 -1.609375 C 2.390625 -0.578125 1.890625 -0.25 0.9375 -0.09375 L 0.9375 0.015625 C 2.015625 -0.078125 4.140625 -0.09375 5.265625 -0.09375 C 6.453125 -0.09375 7.546875 -0.109375 9.125 0 C 9.03125 -0.921875 9.03125 -1.765625 9.125 -2.640625 Z M 9.125 -2.640625 "/></g></g></g><g fill="#000000" fill-opacity="1"><g transform="translate(64.101289, 19.018889)"><g><path d="M 12.34375 -12.75 C 11.75 -12.75 11.171875 -12.78125 10.328125 -12.859375 L 10.328125 -12.75 C 11.203125 -12.59375 11.671875 -12.265625 11.75 -11.25 C 11.84375 -9.78125 11.875 -8.703125 11.875 -6.40625 L 11.875 -3.375 C 8.765625 -6.453125 5.640625 -9.640625 2.484375 -12.984375 L 2.4375 -12.984375 C 2.5 -11.125 2.5 -8.59375 2.5 -6.734375 C 2.5 -4.34375 2.4375 -3.171875 2.359375 -1.609375 C 2.296875 -0.578125 1.84375 -0.25 0.9375 -0.09375 L 0.9375 0.015625 C 1.8125 -0.046875 2.3125 -0.09375 2.921875 -0.09375 C 3.53125 -0.09375 4.078125 -0.046875 4.953125 0.015625 L 4.953125 -0.09375 C 4.078125 -0.25 3.59375 -0.578125 3.546875 -1.609375 C 3.453125 -3.1875 3.421875 -4.34375 3.421875 -6.734375 L 3.421875 -9.484375 C 6.71875 -6.28125 9.859375 -3.0625 12.78125 0.140625 L 12.8125 0.140625 C 12.765625 -1.921875 12.765625 -4.40625 12.765625 -6.328125 C 12.765625 -8.640625 12.8125 -9.765625 12.90625 -11.265625 C 12.96875 -12.265625 13.4375 -12.59375 14.328125 -12.75 L 14.328125 -12.859375 C 13.484375 -12.78125 12.9375 -12.75 12.34375 -12.75 Z M 12.34375 -12.75 "/></g></g></g><g fill="#000000" fill-opacity="1"><g transform="translate(79.371846, 19.018889)"><g/></g></g><g fill="#000000" fill-opacity="1"><g transform="translate(83.701771, 19.018889)"><g><path d="M 3.375 -12.75 C 2.640625 -12.75 1.859375 -12.78125 0.9375 -12.859375 L 0.9375 -12.75 C 1.90625 -12.59375 2.390625 -12.21875 2.4375 -11.25 C 2.53125 -9.640625 2.546875 -8.234375 2.546875 -6.421875 C 2.546875 -3.5 2.5 -2.734375 2.421875 -1.875 C 2.1875 0.71875 1.609375 2.3125 0.078125 3.421875 L 0.140625 3.53125 C 2.578125 2.15625 3.796875 0.765625 4.0625 -2.015625 C 4.15625 -2.890625 4.1875 -3.671875 4.1875 -6.421875 C 4.1875 -8.34375 4.1875 -9.5625 4.296875 -11.25 C 4.34375 -12.21875 4.8125 -12.5625 5.796875 -12.75 L 5.796875 -12.859375 C 4.890625 -12.78125 4.078125 -12.75 3.375 -12.75 Z M 3.375 -12.75 "/></g></g></g><g fill="#000000" fill-opacity="1"><g transform="translate(90.437211, 19.018889)"><g><path d="M 11.609375 -1.625 C 9.34375 -6.53125 8.296875 -8.796875 6.453125 -12.984375 L 6.421875 -12.984375 C 5.46875 -10.515625 3.015625 -4.65625 1.6875 -1.65625 C 1.234375 -0.59375 0.671875 -0.171875 0.109375 -0.09375 L 0.109375 0.015625 C 0.609375 -0.03125 1.25 -0.09375 1.9375 -0.09375 C 2.484375 -0.09375 3.25 -0.03125 3.875 0.015625 L 3.875 -0.09375 C 2.703125 -0.203125 2.390625 -0.609375 2.78125 -1.640625 C 3.0625 -2.421875 3.375 -3.234375 3.671875 -4.03125 C 4.375 -4.0625 5.296875 -4.078125 6.171875 -4.078125 C 7.046875 -4.078125 7.890625 -4.0625 8.609375 -4.03125 C 9.015625 -3.078125 9.375 -2.25 9.609375 -1.640625 C 10 -0.609375 9.484375 -0.203125 8.359375 -0.09375 L 8.359375 0.015625 C 9.234375 -0.078125 10.28125 -0.09375 10.96875 -0.09375 C 11.703125 -0.09375 12.671875 -0.046875 13.28125 0.015625 L 13.28125 -0.09375 C 12.4375 -0.234375 12.0625 -0.625 11.609375 -1.625 Z M 6.15625 -4.765625 C 5.484375 -4.765625 4.625 -4.796875 4 -4.84375 C 4.671875 -6.578125 5.34375 -8.3125 5.984375 -9.875 C 6.59375 -8.5625 7.484375 -6.59375 8.265625 -4.828125 C 7.59375 -4.796875 6.84375 -4.765625 6.15625 -4.765625 Z M 6.15625 -4.765625 "/></g></g></g><g fill="#000000" fill-opacity="1"><g transform="translate(103.819, 19.018889)"><g><path d="M 5.796875 -12.734375 L 5.796875 -12.84375 C 4.890625 -12.765625 4.078125 -12.734375 3.375 -12.734375 C 2.640625 -12.734375 1.859375 -12.765625 0.9375 -12.84375 L 0.9375 -12.734375 C 1.90625 -12.5625 2.390625 -12.171875 2.4375 -11.21875 C 2.53125 -9.609375 2.546875 -8.234375 2.546875 -6.421875 C 2.546875 -4.59375 2.53125 -3.234375 2.4375 -1.625 C 2.390625 -0.65625 1.90625 -0.265625 0.9375 -0.109375 L 0.9375 0 C 1.859375 -0.078125 2.640625 -0.109375 3.375 -0.109375 C 4.078125 -0.109375 4.890625 -0.078125 5.796875 0 L 5.796875 -0.109375 C 4.8125 -0.265625 4.34375 -0.640625 4.296875 -1.609375 C 4.1875 -3.3125 4.1875 -4.5 4.1875 -6.421875 C 4.1875 -8.34375 4.1875 -9.515625 4.296875 -11.234375 C 4.34375 -12.171875 4.8125 -12.5625 5.796875 -12.734375 Z M 5.796875 -12.734375 "/></g></g></g><g fill="#000000" fill-opacity="1"><g transform="translate(110.55444, 19.018889)"><g><path d="M 16.046875 -1.5 C 15.515625 -5.34375 15.09375 -9.078125 14.78125 -13 L 14.75 -13 C 12.984375 -9.515625 11.15625 -6.1875 9.109375 -2.625 C 6.859375 -6.34375 5.03125 -9.640625 3.25 -13 L 3.203125 -13 C 2.90625 -9.21875 2.5 -5.328125 1.9375 -1.5625 C 1.796875 -0.515625 1.40625 -0.234375 0.390625 -0.09375 L 0.390625 0.015625 C 1.25 -0.046875 1.734375 -0.078125 2.375 -0.078125 C 3.03125 -0.078125 3.40625 -0.046875 4.28125 0.015625 L 4.28125 -0.09375 C 3.25 -0.265625 2.890625 -0.515625 2.984375 -1.5625 C 3.15625 -3.953125 3.390625 -6.21875 3.703125 -8.671875 C 5.4375 -5.71875 7.09375 -2.75 8.609375 0.15625 L 8.640625 0.15625 C 10.15625 -2.796875 11.734375 -5.71875 13.40625 -8.71875 C 13.734375 -6.328125 13.984375 -3.953125 14.140625 -1.515625 C 14.203125 -0.5 13.6875 -0.234375 12.78125 -0.09375 L 12.78125 0.015625 C 13.671875 -0.046875 14.46875 -0.078125 15.171875 -0.078125 C 15.984375 -0.078125 16.765625 -0.046875 17.65625 0.015625 L 17.65625 -0.09375 C 16.6875 -0.25 16.171875 -0.515625 16.046875 -1.5 Z M 16.046875 -1.5 "/></g></g></g><g fill="#000000" fill-opacity="1"><g transform="translate(128.586886, 19.018889)"><g><path d="M 9.125 -2.640625 L 9.015625 -2.65625 C 8.640625 -1.0625 8.0625 -0.765625 6.59375 -0.765625 C 5.21875 -0.765625 4.328125 -0.875 4.25 -2.078125 C 4.1875 -3.046875 4.171875 -4.46875 4.171875 -6.421875 L 4.171875 -6.46875 C 4.8125 -6.46875 5.46875 -6.46875 6.203125 -6.453125 C 7.453125 -6.421875 7.625 -6.078125 7.859375 -5.21875 L 7.96875 -5.234375 C 7.890625 -5.734375 7.859375 -6.28125 7.859375 -6.78125 C 7.859375 -7.28125 7.921875 -7.8125 7.96875 -8.328125 L 7.859375 -8.34375 C 7.671875 -7.5625 7.4375 -7.078125 6.203125 -7.0625 C 5.28125 -7.046875 4.703125 -7.046875 4.171875 -7.0625 C 4.171875 -8.515625 4.1875 -9.6875 4.28125 -12.046875 C 5.046875 -12.140625 5.71875 -12.15625 6.28125 -12.15625 C 7.984375 -12.15625 8.6875 -11.84375 8.953125 -10.40625 L 9.0625 -10.40625 C 8.984375 -11.25 9 -12.15625 9.0625 -12.859375 C 8.015625 -12.78125 6.546875 -12.75 5.265625 -12.75 C 3.5625 -12.75 2.046875 -12.765625 0.96875 -12.859375 L 0.96875 -12.75 C 1.90625 -12.59375 2.390625 -12.1875 2.4375 -11.21875 C 2.53125 -9.609375 2.53125 -8.171875 2.53125 -6.421875 C 2.53125 -4.453125 2.53125 -3.25 2.4375 -1.609375 C 2.390625 -0.578125 1.890625 -0.25 0.9375 -0.09375 L 0.9375 0.015625 C 2.015625 -0.078125 4.140625 -0.09375 5.265625 -0.09375 C 6.453125 -0.09375 7.546875 -0.109375 9.125 0 C 9.03125 -0.921875 9.03125 -1.765625 9.125 -2.640625 Z M 9.125 -2.640625 "/></g></g></g><g fill="#000000" fill-opacity="1"><g transform="translate(138.992964, 19.018889)"><g><path d="M 4.421875 0.140625 C 6.6875 0.140625 8.484375 -1.21875 8.484375 -3.359375 C 8.484375 -6.984375 3.1875 -7.71875 3.1875 -10.484375 C 3.1875 -11.453125 3.84375 -12.296875 5.265625 -12.296875 C 6.296875 -12.296875 7.34375 -11.8125 7.640625 -10.15625 L 7.75 -10.15625 C 7.640625 -10.84375 7.671875 -11.703125 7.75 -12.3125 C 7.171875 -12.65625 6.359375 -12.984375 5.296875 -12.984375 C 3.40625 -12.984375 1.59375 -11.984375 1.59375 -9.9375 C 1.59375 -6.453125 6.859375 -5.765625 6.859375 -2.671875 C 6.859375 -1.1875 5.71875 -0.53125 4.4375 -0.53125 C 3.078125 -0.53125 1.78125 -1.3125 1.40625 -3.15625 L 1.296875 -3.15625 C 1.375 -2.328125 1.359375 -1.671875 1.296875 -0.90625 C 1.984375 -0.40625 2.953125 0.140625 4.421875 0.140625 Z M 4.421875 0.140625 "/></g></g></g></svg>