<svg xmlns="http://www.w3.org/2000/svg" xmlns:xlink="http://www.w3.org/1999/xlink" width="200" zoomAndPan="magnify" viewBox="0 0 150 44.999999" height="60" preserveAspectRatio="xMidYMid meet" version="1.0"><defs><g/></defs><rect x="-15" width="180" fill="#ffffff" y="-4.5" height="53.999999" fill-opacity="1"/><rect x="-15" width="180" fill="#262627" y="-4.5" height="53.999999" fill-opacity="1"/><g fill="#ffffff" fill-opacity="1"><g transform="translate(10.432809, 26.781858)"><g><path d="M 1.03125 0 L 3.625 0 L 3.625 -0.265625 C 2.71875 -0.515625 2.21875 -1.09375 2.21875 -3.4375 L 2.21875 -12.578125 L 7.484375 -3.90625 L 7.875 -3.90625 L 13.109375 -12.734375 L 13.109375 -2.609375 C 13.109375 -0.921875 12.90625 -0.453125 12.28125 -0.265625 L 12.28125 0 L 15.625 0 L 15.625 -0.265625 C 14.984375 -0.453125 14.796875 -0.921875 14.796875 -2.609375 L 14.796875 -10.96875 C 14.796875 -13.3125 15.234375 -13.890625 16.046875 -14.140625 L 16.046875 -14.40625 L 13.71875 -14.40625 L 8.453125 -5.53125 L 3.09375 -14.40625 L 0.59375 -14.40625 L 0.59375 -14.140625 C 1.421875 -13.890625 1.859375 -13.3125 1.859375 -10.96875 L 1.859375 -2.609375 C 1.859375 -0.921875 1.671875 -0.453125 1.03125 -0.265625 Z M 1.03125 0 "/></g></g></g><g fill="#ffffff" fill-opacity="1"><g transform="translate(27.52354, 26.781858)"><g><path d="M 8.625 0 L 10.40625 0 L 10.40625 -0.265625 C 9.78125 -0.453125 9.59375 -0.921875 9.59375 -2.609375 L 9.59375 -6.734375 C 9.59375 -9.046875 8.4375 -10.4375 5.953125 -10.4375 C 4.15625 -10.4375 2.65625 -9.546875 1.484375 -8.09375 L 1.671875 -7.921875 C 2.703125 -9.171875 3.890625 -9.75 5.125 -9.75 C 6.875 -9.75 7.90625 -8.828125 8 -6.828125 L 5.328125 -6.109375 C 2.875 -5.4375 0.71875 -4.625 0.71875 -2.484375 C 0.71875 -0.71875 2.078125 0.203125 3.59375 0.203125 C 5.640625 0.203125 7.359375 -1.796875 8 -4.328125 L 8 -0.625 C 8 -0.21875 8.203125 0 8.625 0 Z M 2.265625 -3.0625 C 2.25 -4.75 3.890625 -5.4375 5.40625 -5.859375 L 8 -6.5625 L 8 -5.953125 C 7.984375 -3.78125 6.5625 -1.015625 4.359375 -1.015625 C 3.1875 -1.015625 2.265625 -1.734375 2.265625 -3.0625 Z M 2.265625 -3.0625 "/></g></g></g><g fill="#ffffff" fill-opacity="1"><g transform="translate(38.423762, 26.781858)"><g><path d="M 0.65625 0 L 3.90625 0 L 3.90625 -0.265625 C 3.265625 -0.453125 3.09375 -0.921875 3.09375 -2.609375 L 3.09375 -6.703125 L 3.109375 -6.703125 C 3.171875 -7.703125 3.90625 -8.84375 4.5 -9.28125 C 5.71875 -8.9375 6.515625 -8.703125 7.078125 -8.703125 C 7.8125 -8.703125 8.265625 -9.421875 8.265625 -9.875 C 8.265625 -10.234375 7.765625 -10.4375 6.9375 -10.4375 C 5.953125 -10.4375 5.234375 -10.171875 4.59375 -9.6875 C 3.96875 -9.234375 3.421875 -8.546875 3.09375 -7.734375 L 3.09375 -10.3125 L 2.90625 -10.453125 L 0.65625 -9.46875 L 0.65625 -9.234375 C 1.21875 -9 1.484375 -8.78125 1.484375 -7.34375 L 1.484375 -2.609375 C 1.484375 -0.921875 1.296875 -0.453125 0.65625 -0.265625 Z M 0.65625 0 "/></g></g></g><g fill="#ffffff" fill-opacity="1"><g transform="translate(47.061682, 26.781858)"><g><path d="M 0.78125 0 L 4.03125 0 L 4.03125 -0.265625 C 3.390625 -0.453125 3.203125 -0.921875 3.203125 -2.609375 L 3.203125 -16.484375 L 3.03125 -16.625 L 0.78125 -15.640625 L 0.78125 -15.40625 C 1.34375 -15.171875 1.609375 -14.953125 1.609375 -13.515625 L 1.609375 -2.609375 C 1.609375 -0.921875 1.40625 -0.453125 0.78125 -0.265625 Z M 0.78125 0 "/></g></g></g><g fill="#ffffff" fill-opacity="1"><g transform="translate(51.935937, 26.781858)"><g><path d="M 5.625 0.203125 C 7.8125 0.203125 9.421875 -1.25 10.46875 -2.703125 L 10.296875 -2.875 C 9.34375 -1.8125 8.203125 -1.09375 6.625 -1.09375 C 3.953125 -1.09375 2.203125 -3.03125 2.203125 -5.84375 C 2.203125 -6.171875 2.21875 -6.484375 2.265625 -6.796875 L 10.3125 -6.796875 C 10.25 -8.75 8.75 -10.4375 6.15625 -10.4375 C 3.265625 -10.4375 0.734375 -8.1875 0.734375 -4.828125 C 0.734375 -1.4375 3.359375 0.203125 5.625 0.203125 Z M 2.328125 -7.0625 C 2.65625 -8.78125 3.71875 -10.078125 5.46875 -10.0625 C 7.34375 -10.0625 8.453125 -8.4375 8.65625 -7.0625 Z M 2.328125 -7.0625 "/></g></g></g><g fill="#ffffff" fill-opacity="1"><g transform="translate(62.980126, 26.781858)"><g><path d="M 0.65625 0 L 3.90625 0 L 3.90625 -0.265625 C 3.296875 -0.453125 3.09375 -0.921875 3.09375 -2.609375 L 3.09375 -8.203125 C 4.140625 -9.078125 5.25 -9.75 6.375 -9.75 C 8.1875 -9.75 9.09375 -8.578125 9.09375 -6.4375 L 9.09375 -2.609375 C 9.09375 -0.921875 8.90625 -0.453125 8.265625 -0.265625 L 8.265625 0 L 11.53125 0 L 11.53125 -0.265625 C 10.890625 -0.453125 10.703125 -0.921875 10.703125 -2.609375 L 10.703125 -6.859375 C 10.703125 -9.265625 9.46875 -10.4375 7.453125 -10.4375 C 5.859375 -10.4375 4.28125 -9.5 3.09375 -8.546875 L 3.09375 -10.3125 L 2.921875 -10.453125 L 0.65625 -9.46875 L 0.65625 -9.234375 C 1.234375 -9 1.484375 -8.78125 1.484375 -7.34375 L 1.484375 -2.609375 C 1.484375 -0.921875 1.296875 -0.453125 0.65625 -0.265625 Z M 0.65625 0 "/></g></g></g><g fill="#ffffff" fill-opacity="1"><g transform="translate(74.99094, 26.781858)"><g/></g></g><g fill="#ffffff" fill-opacity="1"><g transform="translate(79.309894, 26.781858)"><g><path d="M -1.3125 2.46875 C 1.34375 2.46875 3.8125 -0.078125 3.8125 -4.03125 L 3.8125 -11.796875 C 3.8125 -13.484375 3.984375 -13.953125 4.625 -14.140625 L 4.625 -14.40625 L 1.3125 -14.40625 L 1.3125 -14.140625 C 1.953125 -13.953125 2.140625 -13.484375 2.140625 -11.796875 L 2.140625 -1.515625 C 2.140625 0.5625 1.546875 1.0625 1.046875 1.375 C 0.0625 1.171875 -0.4375 1.0625 -1.015625 1.0625 C -1.734375 1.0625 -2.140625 1.578125 -2.140625 2.015625 C -2.140625 2.40625 -1.859375 2.46875 -1.3125 2.46875 Z M -1.3125 2.46875 "/></g></g></g><g fill="#ffffff" fill-opacity="1"><g transform="translate(84.986244, 26.781858)"><g><path d="M 8.625 0 L 10.40625 0 L 10.40625 -0.265625 C 9.78125 -0.453125 9.59375 -0.921875 9.59375 -2.609375 L 9.59375 -6.734375 C 9.59375 -9.046875 8.4375 -10.4375 5.953125 -10.4375 C 4.15625 -10.4375 2.65625 -9.546875 1.484375 -8.09375 L 1.671875 -7.921875 C 2.703125 -9.171875 3.890625 -9.75 5.125 -9.75 C 6.875 -9.75 7.90625 -8.828125 8 -6.828125 L 5.328125 -6.109375 C 2.875 -5.4375 0.71875 -4.625 0.71875 -2.484375 C 0.71875 -0.71875 2.078125 0.203125 3.59375 0.203125 C 5.640625 0.203125 7.359375 -1.796875 8 -4.328125 L 8 -0.625 C 8 -0.21875 8.203125 0 8.625 0 Z M 2.265625 -3.0625 C 2.25 -4.75 3.890625 -5.4375 5.40625 -5.859375 L 8 -6.5625 L 8 -5.953125 C 7.984375 -3.78125 6.5625 -1.015625 4.359375 -1.015625 C 3.1875 -1.015625 2.265625 -1.734375 2.265625 -3.0625 Z M 2.265625 -3.0625 "/></g></g></g><g fill="#ffffff" fill-opacity="1"><g transform="translate(95.886466, 26.781858)"><g><path d="M 0.65625 0 L 3.90625 0 L 3.90625 -0.265625 C 3.296875 -0.453125 3.09375 -0.921875 3.09375 -2.609375 L 3.09375 -10.3125 L 2.921875 -10.453125 L 0.65625 -9.46875 L 0.65625 -9.234375 C 1.234375 -9 1.484375 -8.78125 1.484375 -7.34375 L 1.484375 -2.609375 C 1.484375 -0.921875 1.296875 -0.453125 0.65625 -0.265625 Z M 1.03125 -12.84375 C 1.03125 -12.21875 1.515625 -11.703125 2.15625 -11.703125 C 2.796875 -11.703125 3.296875 -12.21875 3.296875 -12.84375 C 3.296875 -13.5 2.8125 -14 2.15625 -14 C 1.515625 -14 1.03125 -13.5 1.03125 -12.84375 Z M 1.03125 -12.84375 "/></g></g></g><g fill="#ffffff" fill-opacity="1"><g transform="translate(100.513918, 26.781858)"><g><path d="M 0.65625 0 L 3.90625 0 L 3.90625 -0.265625 C 3.265625 -0.453125 3.09375 -0.921875 3.09375 -2.609375 L 3.09375 -8.265625 C 4.203125 -9.109375 5.265625 -9.75 6.4375 -9.75 C 8.03125 -9.75 8.78125 -8.6875 8.78125 -6.640625 L 8.78125 -2.609375 C 8.78125 -0.921875 8.578125 -0.453125 7.96875 -0.265625 L 7.96875 0 L 11.21875 0 L 11.21875 -0.265625 C 10.578125 -0.453125 10.390625 -0.921875 10.390625 -2.609375 L 10.390625 -7.015625 C 10.390625 -7.46875 10.34375 -7.875 10.265625 -8.234375 C 11.40625 -9.109375 12.46875 -9.75 13.640625 -9.75 C 15.25 -9.75 15.984375 -8.6875 15.984375 -6.640625 L 15.984375 -2.609375 C 15.984375 -0.921875 15.796875 -0.453125 15.171875 -0.265625 L 15.171875 0 L 18.421875 0 L 18.421875 -0.265625 C 17.796875 -0.453125 17.59375 -0.921875 17.59375 -2.609375 L 17.59375 -7.015625 C 17.59375 -9.34375 16.5625 -10.4375 14.5625 -10.4375 C 13.03125 -10.4375 11.4375 -9.484375 10.203125 -8.5 C 9.84375 -9.8125 8.875 -10.4375 7.34375 -10.4375 C 5.859375 -10.4375 4.328125 -9.546875 3.09375 -8.5625 L 3.09375 -10.3125 L 2.90625 -10.453125 L 0.65625 -9.46875 L 0.65625 -9.234375 C 1.21875 -9 1.484375 -8.78125 1.484375 -7.34375 L 1.484375 -2.609375 C 1.484375 -0.921875 1.296875 -0.453125 0.65625 -0.265625 Z M 0.65625 0 "/></g></g></g><g fill="#ffffff" fill-opacity="1"><g transform="translate(119.352803, 26.781858)"><g><path d="M 5.625 0.203125 C 7.8125 0.203125 9.421875 -1.25 10.46875 -2.703125 L 10.296875 -2.875 C 9.34375 -1.8125 8.203125 -1.09375 6.625 -1.09375 C 3.953125 -1.09375 2.203125 -3.03125 2.203125 -5.84375 C 2.203125 -6.171875 2.21875 -6.484375 2.265625 -6.796875 L 10.3125 -6.796875 C 10.25 -8.75 8.75 -10.4375 6.15625 -10.4375 C 3.265625 -10.4375 0.734375 -8.1875 0.734375 -4.828125 C 0.734375 -1.4375 3.359375 0.203125 5.625 0.203125 Z M 2.328125 -7.0625 C 2.65625 -8.78125 3.71875 -10.078125 5.46875 -10.0625 C 7.34375 -10.0625 8.453125 -8.4375 8.65625 -7.0625 Z M 2.328125 -7.0625 "/></g></g></g><g fill="#ffffff" fill-opacity="1"><g transform="translate(130.396992, 26.781858)"><g><path d="M 4.65625 0.1875 C 7.125 0.171875 8.421875 -1.296875 8.421875 -3.03125 C 8.421875 -5.078125 6.515625 -5.5625 4.953125 -6.078125 C 3.328125 -6.609375 2.015625 -7.140625 2.015625 -8.4375 C 2.015625 -9.484375 2.921875 -10.171875 4.328125 -10.171875 C 5.78125 -10.171875 7.09375 -9.21875 7.765625 -7.734375 L 7.96875 -7.78125 L 7.875 -9.875 C 7.25 -10.140625 6.03125 -10.4375 4.6875 -10.4375 C 2.3125 -10.4375 0.953125 -9.171875 0.953125 -7.546875 C 0.953125 -5.671875 2.34375 -5.140625 4.296875 -4.53125 C 5.890625 -4.015625 7.328125 -3.546875 7.328125 -2.0625 C 7.328125 -0.90625 6.375 -0.140625 5.109375 -0.140625 C 3.234375 -0.171875 1.765625 -1.34375 0.90625 -3.296875 L 0.71875 -3.25 L 0.90625 -0.765625 C 1.578125 -0.3125 3 0.1875 4.65625 0.1875 Z M 4.65625 0.1875 "/></g></g></g></svg>